<svg xmlns="http://www.w3.org/2000/svg" xmlns:xlink="http://www.w3.org/1999/xlink" viewBox="0 0 512.001 512.001" xmlns:v="https://vecta.io/nano" fill="gold">
<path d="M430.821 263.506h43.254c2.959 7.154 10.006 12.204 18.216 12.204 10.868 0 19.709-8.842 19.709-19.71s-8.842-19.709-19.709-19.709c-8.215 0-15.264 5.055-18.22 12.215h-43.25v-65.601h43.254c2.959 7.154 10.006 12.204 18.216 12.204 10.868 0 19.709-8.842 19.709-19.71s-8.842-19.709-19.709-19.709c-8.215 0-15.264 5.055-18.22 12.215h-43.25V88.68a7.5 7.5 0 0 0-7.5-7.5h-32.213a7.5 7.5 0 1 0 0 15h24.713v319.642H96.181V96.18h265.38a7.5 7.5 0 1 0 0-15h-17.45V37.926c7.152-2.96 12.2-10.006 12.2-18.216 0-10.868-8.842-19.71-19.709-19.71s-19.709 8.842-19.709 19.71c0 8.216 5.057 15.267 12.219 18.222V81.18h-65.6V37.925c7.152-2.96 12.2-10.006 12.2-18.215C275.71 8.842 266.869 0 256.001 0s-19.709 8.842-19.709 19.71c0 8.217 5.057 15.267 12.219 18.223V81.18h-65.6V37.925c7.151-2.96 12.199-10.006 12.199-18.215C195.11 8.842 186.268 0 175.401 0s-19.71 8.842-19.71 19.71c0 8.217 5.058 15.268 12.22 18.223V81.18h-79.23a7.5 7.5 0 0 0-7.5 7.5v79.216H37.927c-2.958-7.155-10.006-12.205-18.217-12.205C8.843 155.69.001 164.532.001 175.399s8.842 19.71 19.709 19.71c8.214 0 15.263-5.055 18.22-12.214h43.25v65.6H37.927c-2.959-7.154-10.006-12.204-18.217-12.204C8.843 236.291.001 245.133.001 256s8.842 19.71 19.709 19.71c8.214 0 15.264-5.055 18.22-12.215h43.25v65.601H37.927c-2.959-7.154-10.006-12.204-18.216-12.204-10.868 0-19.71 8.841-19.71 19.71s8.842 19.709 19.709 19.709c8.215 0 15.264-5.055 18.22-12.215h43.25v79.225a7.5 7.5 0 0 0 7.5 7.5h79.21v43.255c-7.152 2.96-12.2 10.006-12.2 18.216 0 10.867 8.842 19.709 19.709 19.709s19.709-8.842 19.709-19.709c0-8.216-5.057-15.267-12.219-18.222v-43.25h65.6v43.255c-7.152 2.96-12.2 10.006-12.2 18.215 0 10.867 8.842 19.709 19.709 19.709s19.709-8.842 19.709-19.709c0-8.217-5.057-15.267-12.219-18.223V430.82h65.6v43.256c-7.151 2.96-12.199 10.006-12.199 18.215 0 10.867 8.842 19.709 19.709 19.709s19.709-8.842 19.709-19.709c0-8.217-5.058-15.268-12.22-18.223V430.82h79.23a7.5 7.5 0 0 0 7.5-7.5v-79.215h43.253c2.958 7.155 10.006 12.205 18.217 12.205 10.868 0 19.709-8.842 19.709-19.709s-8.842-19.71-19.709-19.71c-8.214 0-15.263 5.055-18.22 12.214h-43.25l.004-65.599zm61.471-12.215c2.597 0 4.709 2.112 4.709 4.709s-2.113 4.71-4.709 4.71-4.709-2.113-4.709-4.71 2.112-4.709 4.709-4.709zm0-80.601c2.597 0 4.709 2.112 4.709 4.709s-2.113 4.71-4.709 4.71-4.709-2.113-4.709-4.71 2.112-4.709 4.709-4.709zM336.602 15c2.597 0 4.709 2.113 4.709 4.71 0 2.584-2.094 4.687-4.674 4.707-.009 0-.017-.001-.026-.001s-.025.002-.038.002c-2.583-.016-4.68-2.12-4.68-4.707-.001-2.598 2.112-4.711 4.709-4.711zm-80.601 0c2.597 0 4.709 2.113 4.709 4.71 0 2.584-2.094 4.687-4.674 4.706-.009 0-.017-.001-.026-.001s-.026.002-.039.002c-2.583-.016-4.681-2.12-4.681-4.707a4.72 4.72 0 0 1 4.711-4.71zM175.4 15c2.597 0 4.709 2.113 4.709 4.71 0 2.584-2.094 4.687-4.674 4.706-.008 0-.017-.001-.025-.001s-.026.002-.039.002c-2.583-.016-4.681-2.12-4.681-4.707A4.72 4.72 0 0 1 175.4 15zM19.71 180.109c-2.597 0-4.709-2.113-4.709-4.71s2.113-4.709 4.709-4.709 4.709 2.112 4.709 4.709-2.112 4.71-4.709 4.71zm0 80.601c-2.597 0-4.709-2.113-4.709-4.71s2.113-4.709 4.709-4.709 4.709 2.112 4.709 4.709-2.112 4.71-4.709 4.71zm0 80.601c-2.597 0-4.709-2.112-4.709-4.709s2.113-4.71 4.709-4.71 4.709 2.113 4.709 4.71-2.112 4.709-4.709 4.709zM175.4 497c-2.597 0-4.709-2.112-4.709-4.709 0-2.587 2.098-4.691 4.681-4.707.007 0 .013.001.02.001s.021-.001.032-.001c2.586.012 4.687 2.119 4.687 4.708-.001 2.596-2.114 4.708-4.711 4.708zm80.601 0c-2.597 0-4.709-2.112-4.709-4.709 0-2.587 2.098-4.691 4.68-4.707.03.001.04 0 .051-.001 2.586.012 4.687 2.119 4.687 4.708 0 2.597-2.112 4.709-4.709 4.709zm80.601 0c-2.597 0-4.709-2.112-4.709-4.709 0-2.587 2.097-4.691 4.68-4.707.03.001.041 0 .052-.001 2.586.012 4.687 2.119 4.687 4.708-.001 2.597-2.114 4.709-4.71 4.709zm155.69-165.108c2.597 0 4.709 2.113 4.709 4.71s-2.113 4.709-4.709 4.709-4.709-2.112-4.709-4.709 2.112-4.71 4.709-4.71zm-93.728-225.954H113.438a7.5 7.5 0 0 0-7.5 7.5v208.314a7.5 7.5 0 1 0 15 0V120.938h270.126v270.126H120.938v-39.765a7.5 7.5 0 1 0-15 0v47.265a7.5 7.5 0 0 0 7.5 7.5h285.126a7.5 7.5 0 0 0 7.5-7.5V113.438a7.5 7.5 0 0 0-7.5-7.5zm-91.245 91.246H204.684a7.5 7.5 0 0 0-7.5 7.5v102.634a7.5 7.5 0 0 0 7.5 7.5h39.543a7.5 7.5 0 1 0 0-15h-32.043v-87.634h87.635v87.634h-26.043a7.5 7.5 0 1 0 0 15h33.543a7.5 7.5 0 0 0 7.5-7.5V204.684a7.5 7.5 0 0 0-7.5-7.5z"/><use xlink:href="#B"/><use xlink:href="#C"/><use xlink:href="#C" x="39.538"/><use xlink:href="#C" x="79.077"/><use xlink:href="#C" x="118.616"/><use xlink:href="#B" x="197.694"/><use xlink:href="#B" y="197.694"/><use xlink:href="#C" x="-0.001" y="197.694"/><use xlink:href="#C" x="39.538" y="197.694"/><use xlink:href="#C" x="79.077" y="197.694"/><use xlink:href="#C" x="118.616" y="197.694"/><use xlink:href="#B" x="197.694" y="197.694"/><use xlink:href="#B" y="39.539"/><use xlink:href="#B" y="79.078"/><use xlink:href="#B" y="118.617"/><use xlink:href="#D"/><use xlink:href="#B" x="197.694" y="39.539"/><use xlink:href="#B" x="197.694" y="79.078"/><use xlink:href="#B" x="197.694" y="118.617"/><use xlink:href="#D" x="197.694"/><defs ><path id="B" d="M163.191 143.617h-12.074a7.5 7.5 0 0 0-7.5 7.5v12.073a7.5 7.5 0 0 0 7.5 7.5h12.074a7.5 7.5 0 0 0 7.5-7.5v-12.073a7.5 7.5 0 0 0-7.5-7.5z"/><path id="C" d="M202.73 143.617h-12.073a7.5 7.5 0 0 0-7.5 7.5v12.073a7.5 7.5 0 0 0 7.5 7.5h12.073a7.5 7.5 0 0 0 7.5-7.5v-12.073a7.5 7.5 0 0 0-7.5-7.5z"/><path id="D" d="M163.191 301.772h-12.074a7.5 7.5 0 0 0-7.5 7.5v12.074a7.5 7.5 0 0 0 7.5 7.5h12.074a7.5 7.5 0 0 0 7.5-7.5v-12.074a7.5 7.5 0 0 0-7.5-7.5z"/></defs></svg>