<svg xmlns="http://www.w3.org/2000/svg" viewBox="0 0 74 74" xmlns:v="https://vecta.io/nano" fill="gold"><path d="M36.64 72a1 1 0 0 1-.462-.113L5.063 55.665a1 1 0 0 1-.538-.887V20.092a1 1 0 0 1 .519-.876L36.158 2.124a1 1 0 0 1 .955 0l31.835 17.087a1 1 0 0 1 .527.881v34.686a1 1 0 0 1-.546.891L37.094 71.891a1 1 0 0 1-.454.109zM6.525 54.172l30.12 15.7 30.83-15.709V20.69L36.645 4.138 6.525 20.684z"/><path d="M20.884 29.458a1 1 0 0 1-.479-.122L5.046 20.97 6 19.214l14.88 8.105 30.931-16.857.957 1.756-31.406 17.118a1 1 0 0 1-.478.122z"/><path d="M52.29 29.458a1 1 0 0 1-.488-.127l-30.58-17.119.977-1.745 30.11 16.855L68.016 19.2l.918 1.776-16.185 8.37a1 1 0 0 1-.459.112zm-32.406-1h2v34.397h-2z"/><path d="M36.64 55.778a1 1 0 0 1-.484-.125L5.041 38.422l.969-1.75 30.643 16.97L68.01 37.167l.931 1.771L37.1 55.664a1 1 0 0 1-.46.114z"/><path d="M35.64 54.778h2V71h-2zm15.65-26.32h2V63.02h-2zM21.368 47.149L20.4 45.4l15.24-8.441V20.092h2v17.455a1 1 0 0 1-.516.875z"/><path d="M36.139 38.435l.974-1.746 15.643 8.727-.974 1.746z"/></svg>