<svg xmlns="http://www.w3.org/2000/svg" viewBox="0 0 512 512"  xmlns:v="https://vecta.io/nano"><linearGradient id="A" gradientUnits="userSpaceOnUse" x1="41" y1="256" x2="471" y2="256"><stop offset="0" stop-color="#00f2fe"/><stop offset=".021" stop-color="#03effe"/><stop offset=".293" stop-color="#24d2fe"/><stop offset=".554" stop-color="#3cbdfe"/><stop offset=".796" stop-color="#4ab0fe"/><stop offset="1" stop-color="#4facfe"/></linearGradient><path d="M256 267c-51.832 0-94-42.168-94-94s42.168-94 94-94 94 42.168 94 94a94.77 94.77 0 0 1-1.229 15.219 20 20 0 0 1-22.958 16.521c-10.901-1.777-18.298-12.056-16.521-22.958.469-2.878.707-5.832.707-8.781 0-29.775-24.225-54-54-54s-54 24.225-54 54 24.225 54 54 54a55.01 55.01 0 0 0 7.325-.49c10.945-1.474 21.017 6.199 22.495 17.146s-6.199 21.018-17.146 22.495c-4.175.562-8.44.848-12.673.848zm-81.639 76.917C129.48 295.748 83.071 245.94 83 172.02c.054-46.359 18.044-89.676 50.657-122.012C166.182 17.76 209.631 0 256 0c46.397 0 90.002 17.737 122.779 49.944 32.977 32.404 51.167 75.742 51.221 122.032-.071 73.843-46.707 123.563-91.808 171.645-23.082 24.607-46.949 50.054-65.286 79.064a20 20 0 0 1-33.812.001c-18.268-28.901-41.889-54.252-64.733-78.769zM123 172.023c.057 58.153 37.394 98.226 80.627 144.625 17.744 19.044 35.936 38.568 52.385 60.34 16.607-21.927 35.032-41.569 53.006-60.732 43.424-46.295 80.927-86.276 80.982-144.275C389.916 99.226 329.804 40 256 40c-74.494 0-132.915 57.991-133 132.023zm315.765 224.585c-15.385-8.07-36.508-14.869-62.782-20.208-10.83-2.197-21.382 4.794-23.582 15.617s4.793 21.383 15.617 23.582c40.529 8.235 57.145 18.119 61.938 22.912-3.531 3.538-15.338 12.42-50.025 20.77C345.858 467.483 301.847 472 256 472s-89.858-4.517-123.93-12.719c-34.688-8.35-46.494-17.231-50.025-20.77 4.793-4.793 21.408-14.677 61.938-22.912 10.824-2.199 17.816-12.758 15.617-23.582s-12.759-17.813-23.582-15.617c-26.274 5.339-47.397 12.138-62.782 20.208C51.846 407.828 41 421.938 41 438.544c0 24.814 24.166 44.021 71.826 57.087C151.331 506.187 202.178 512 256 512s104.669-5.813 143.174-16.369C446.834 482.565 471 463.358 471 438.544c0-16.606-10.846-30.716-32.235-41.936z" fill="url(#A)"/></svg>