<svg xmlns="http://www.w3.org/2000/svg" viewBox="0 0 511.997 511.997"  xmlns:v="https://vecta.io/nano" fill="#fff"><path d="M335.99 160.828a10 10 0 0 0-8.074-6.804l-43.503-6.31-19.465-39.414a10 10 0 0 0-8.966-5.572h-.002a10 10 0 0 0-8.966 5.577l-19.443 39.424-43.5 6.333a10 10 0 0 0-5.537 17.058l31.486 30.675-7.419 43.327a10 10 0 0 0 3.981 9.78c1.742 1.265 3.804 1.908 5.876 1.908 1.592 0 3.191-.38 4.655-1.15l38.903-20.466 38.914 20.445c3.369 1.771 7.452 1.475 10.531-.764a10 10 0 0 0 3.976-9.781l-7.442-43.323 31.47-30.691c2.723-2.658 3.702-6.632 2.525-10.252zm-51.724 30.296a10 10 0 0 0-2.874 8.852l4.902 28.535-25.631-13.466a10 10 0 0 0-9.307.002l-25.624 13.48 4.887-28.538a10 10 0 0 0-2.878-8.851l-20.738-20.204 28.651-4.171a10 10 0 0 0 7.528-5.472l12.806-25.966 12.821 25.96a10 10 0 0 0 7.531 5.468l28.653 4.156-20.727 20.215zm196.472 248.243l-82.656-143.77c24.961-31.158 39.916-70.661 39.916-113.597 0-100.355-81.645-182-182-182s-182 81.645-182 182c0 42.936 14.954 82.439 39.916 113.597l-82.656 143.77c-1.898 3.302-1.756 7.396.367 10.559a10 10 0 0 0 9.633 4.337l64.513-8.663 24.754 60.201a10 10 0 0 0 8.582 6.174 10.01 10.01 0 0 0 .669.022 10 10 0 0 0 8.658-5l83.443-144.527c.013-.022.022-.045.035-.068 7.884 1.047 15.922 1.597 24.088 1.597s16.204-.55 24.088-1.597c.013.022.022.045.035.068l83.443 144.527a10 10 0 0 0 8.658 5 10.01 10.01 0 0 0 .669-.022 10 10 0 0 0 8.582-6.174L406.23 445.6l64.513 8.663c3.779.507 7.51-1.175 9.633-4.337 2.117-3.163 2.26-7.257.362-10.559zm-339.454 40.012l-18.02-43.822 16.171-26.389a10 10 0 0 0-3.301-13.751c-4.709-2.885-10.866-1.408-13.751 3.301l-16.341 26.666-47.33 6.355 69.276-120.496c22.692 22.477 51.248 39.04 83.144 47.156l-69.848 120.98zM255.997 344c-89.327 0-162-72.673-162-162s72.673-162 162-162 162 72.673 162 162-72.673 162-162 162zm149.956 81.384l-16.341-26.666a10 10 0 1 0-17.052 10.45l16.171 26.389-18.02 43.822-69.848-120.98c31.896-8.116 60.453-24.679 83.144-47.156l69.276 120.496-47.33-6.355zM255.997 52c-22.316 0-44.333 5.752-63.672 16.636-4.813 2.708-6.519 8.806-3.811 13.619a10 10 0 0 0 13.619 3.811C218.484 76.864 237.11 72 255.997 72c60.654 0 110 49.346 110 110 0 16.574-3.591 32.499-10.673 47.332-2.379 4.984-.268 10.953 4.716 13.333a9.96 9.96 0 0 0 4.302.978c3.732 0 7.315-2.101 9.031-5.694 8.376-17.545 12.624-36.369 12.624-55.949 0-71.682-58.317-130-130-130zm93.053 206.422c-3.963-3.846-10.294-3.751-14.14.212l-.222.228c-3.858 3.951-3.783 10.283.168 14.141 1.945 1.899 4.466 2.845 6.985 2.845a9.97 9.97 0 0 0 7.156-3.014l.264-.271c3.847-3.963 3.752-10.294-.211-14.141zm-26.464 23.923a10 10 0 0 0-13.584-3.932C292.871 287.302 274.542 292 255.997 292c-60.654 0-110-49.346-110-110 0-15.889 3.311-31.213 9.84-45.546 2.29-5.026.071-10.956-4.955-13.246s-10.956-.071-13.246 4.955c-7.724 16.954-11.64 35.067-11.64 53.837 0 71.682 58.318 130 130 130 21.911 0 43.578-5.557 62.658-16.071a10 10 0 0 0 3.932-13.584zM174.999 92.899c-4.041-3.765-10.369-3.539-14.133.501l-.222.239c-3.75 4.054-3.505 10.381.549 14.131a9.96 9.96 0 0 0 6.788 2.66c2.69 0 5.372-1.079 7.343-3.209l.176-.189c3.764-4.041 3.54-10.369-.501-14.133z"/></svg>