<svg xmlns="http://www.w3.org/2000/svg" viewBox="0 0 512 512"  xmlns:v="https://vecta.io/nano"><linearGradient id="A" gradientUnits="userSpaceOnUse" x1="0" y1="256" x2="512" y2="256"><stop offset="0" stop-color="#00f2fe"/><stop offset=".021" stop-color="#03effe"/><stop offset=".293" stop-color="#24d2fe"/><stop offset=".554" stop-color="#3cbdfe"/><stop offset=".796" stop-color="#4ab0fe"/><stop offset="1" stop-color="#4facfe"/></linearGradient><path d="M432 236h-76c-44.112 0-80-35.888-80-80V80c0-44.112 35.888-80 80-80h76c44.112 0 80 35.888 80 80v76c0 44.112-35.888 80-80 80zM356 40c-22.056 0-40 17.944-40 40v76c0 22.056 17.944 40 40 40h76c22.056 0 40-17.944 40-40V80c0-22.056-17.944-40-40-40h-76zM156 236H80c-44.112 0-80-35.888-80-80V80C0 35.888 35.888 0 80 0h76c44.112 0 80 35.888 80 80v76c0 44.112-35.888 80-80 80zM80 40c-22.056 0-40 17.944-40 40v76c0 22.056 17.944 40 40 40h76c22.056 0 40-17.944 40-40V80c0-22.056-17.944-40-40-40H80zm76 472H80c-44.112 0-80-35.888-80-80v-76c0-44.112 35.888-80 80-80h76c44.112 0 80 35.888 80 80v76c0 44.112-35.888 80-80 80zM80 316c-22.056 0-40 17.944-40 40v76c0 22.056 17.944 40 40 40h76c22.056 0 40-17.944 40-40v-76c0-22.056-17.944-40-40-40H80zm432 116c0-11.046-8.954-20-20-20s-20 8.954-20 20c0 22.056-17.944 40-40 40h-76c-22.056 0-40-17.944-40-40v-76c0-22.056 17.944-40 40-40h76a40.03 40.03 0 0 1 36.675 23.996c4.425 10.12 16.218 14.735 26.338 10.312s14.737-16.218 10.312-26.338C492.582 294.829 463.8 276 432 276h-76c-44.112 0-80 35.888-80 80v76c0 44.112 35.888 80 80 80h76c44.112 0 80-35.888 80-80z" fill="url(#A)"/></svg>