<svg xmlns="http://www.w3.org/2000/svg" viewBox="0 0 496 496" xmlns:v="https://vecta.io/nano" fill="gold"><path d="M472 272c-12.922 0-23.414 10.289-23.91 23.098l-53.641 16.766c-7.937-16.504-23.687-28.512-42.449-31.215v-89.785c13.77-3.574 24-15.992 24-30.863 0-6.266-1.871-12.07-5-17.008l91.344-97.055C465.305 47.246 468.559 48 472 48c13.23 0 24-10.77 24-24S485.23 0 472 0s-24 10.77-24 24c0 3.953 1.047 7.625 2.742 10.91l-91.437 97.16c-4.57-2.512-9.73-4.07-15.305-4.07-14.871 0-27.289 10.23-30.863 24H207.359c-3.527-24.473-22.887-43.832-47.359-47.359V46.527c9.289-3.312 16-12.113 16-22.527 0-13.23-10.77-24-24-24s-24 10.77-24 24c0 10.414 6.711 19.215 16 22.527v58.113c-27.09 3.902-48 27.207-48 55.359 0 8.895 2.145 17.289 5.855 24.77l-63.801 43.863C34.09 225.754 29.266 224 24 224c-13.23 0-24 10.77-24 24s10.77 24 24 24 24-10.77 24-24c0-2.145-.375-4.184-.902-6.168l63.84-43.887c8.52 9.215 20.063 15.543 33.063 17.414v89.777c-13.77 3.574-24 15.992-24 30.863 0 6.266 1.879 12.07 5 17.008l-91.344 97.055C30.695 448.762 27.441 448 24 448c-13.23 0-24 10.77-24 24s10.77 24 24 24 24-10.77 24-24c0-3.953-1.047-7.625-2.742-10.91l91.445-97.16c4.57 2.512 9.73 4.07 15.297 4.07 1.953 0 3.832-.238 5.688-.574l25.586 55.414C178.801 427.207 176 433.281 176 440c0 13.23 10.77 24 24 24s24-10.77 24-24-10.77-24-24-24c-.742 0-1.441.152-2.16.215l-25.656-55.582c5.16-4.234 8.961-9.984 10.688-16.633h105.77c3.527 24.473 22.887 43.832 47.359 47.359v58.113c-9.289 3.313-16 12.113-16 22.527 0 13.23 10.77 24 24 24s24-10.77 24-24c0-10.414-6.711-19.215-16-22.527v-58.113c27.09-3.902 48-27.207 48-55.359 0-3.031-.312-5.977-.777-8.879l53.656-16.77C457.266 316.176 464.168 320 472 320c13.23 0 24-10.77 24-24s-10.77-24-24-24zm-320-88c-13.23 0-24-10.77-24-24h16a8.01 8.01 0 0 0 8 8zm184 96.641c-24.473 3.527-43.832 22.887-47.359 47.359H182.863A31.94 31.94 0 0 0 160 305.137v-89.777c24.473-3.527 43.832-22.887 47.359-47.359h105.777A31.94 31.94 0 0 0 336 190.863zM344 360v-16a8.01 8.01 0 0 0 8-8h16c0 13.238-10.77 24-24 24zm0 0"/></svg>