<svg xmlns="http://www.w3.org/2000/svg" viewBox="0 0 511.999 511.999"  xmlns:v="https://vecta.io/nano"><linearGradient id="A" gradientUnits="userSpaceOnUse" x1="0" y1="255.998" x2="512.002" y2="255.998"><stop offset="0" stop-color="#00f2fe"/><stop offset=".021" stop-color="#03effe"/><stop offset=".293" stop-color="#24d2fe"/><stop offset=".554" stop-color="#3cbdfe"/><stop offset=".796" stop-color="#4ab0fe"/><stop offset="1" stop-color="#4facfe"/></linearGradient><path d="M373.534 511.998c-.374 0-.747-.001-1.122-.002-35.304-.177-73.771-9.137-114.332-26.633-10.142-4.375-14.818-16.144-10.443-26.286s16.144-14.819 26.286-10.443c35.092 15.136 69.219 23.215 98.689 23.362l.912.002c36.871 0 67.652-11.204 89.101-32.433l.141-.157c13.046-14.535 12.252-36.545-1.81-50.105-53.701-51.783-79.053-48.028-102.518-25.145l-37.346 37.068a20 20 0 0 1-22.226 4.075c-2.114-.941-52.428-23.709-109.125-80.408l-2.632-2.629c-56.705-56.706-79.473-107.018-80.414-109.132a20 20 0 0 1 4.075-22.226l37.074-37.353c22.88-23.463 26.63-48.814-25.151-102.511-13.56-14.062-35.57-14.856-50.108-1.808l-.153.138c-21.404 21.626-32.617 52.739-32.431 90.014.359 71.852 41.094 155.295 108.978 223.258l.187.185c12.963 12.963 27.768 25.848 44.004 38.296 8.766 6.721 10.423 19.275 3.702 28.041s-19.276 10.423-28.041 3.702c-17.542-13.451-33.61-27.435-47.762-41.567l-.188-.186C45.602 315.837.413 221.808.003 139.588-.239 91.187 15.151 50.085 44.511 20.727a19.45 19.45 0 0 1 .78-.739l.574-.516C60.614 6.232 79.647-.662 99.446.051s38.285 8.964 52.041 23.229c26.934 27.931 42.481 51.333 48.929 73.646 8.886 30.749.805 59.227-24.016 84.641l-.113.115-26.839 27.041c9.516 16.881 30.431 49.747 65.939 85.254l2.632 2.63c35.744 35.744 68.424 56.527 85.235 65.971l27.181-26.978c25.415-24.821 53.891-32.903 84.64-24.016 22.314 6.448 45.715 21.996 73.646 48.929 14.265 13.755 22.515 32.237 23.229 52.042s-6.183 38.832-19.419 53.579l-.519.577a19.41 19.41 0 0 1-.739.78c-29.131 29.128-69.826 44.506-117.739 44.507zm12.204-293c10.591-3.135 16.636-14.263 13.5-24.854l-.271-.918c-3.085-10.482-8.827-29.994-29.51-50.677-21.453-21.454-42.043-27.147-51.939-29.884a20 20 0 0 0-24.607 13.946c-2.944 10.646 3.299 21.663 13.946 24.607 8.092 2.238 20.32 5.62 34.316 19.615 13.473 13.473 17.052 25.636 19.421 33.685l.289.979c2.574 8.697 10.538 14.329 19.169 14.329a19.96 19.96 0 0 0 5.686-.828zm105.17 25.097c.285-59.837-22.778-116.009-64.94-158.172C384.134 44.088 328.43 21.09 269.004 21.09l-1.099.002c-11.046.053-19.957 9.05-19.905 20.095.053 11.013 8.997 19.905 19.998 19.905l1-.002c48.74 0 94.412 18.844 128.686 53.118 34.557 34.557 53.459 80.618 53.225 129.697-.052 11.045 8.859 20.042 19.905 20.095h.097c10.999 0 19.944-8.892 19.997-19.905z" fill="url(#A)"/></svg>