<svg xmlns="http://www.w3.org/2000/svg" height="512" viewBox="0 0 62.5 62" width="512"  xmlns:v="https://vecta.io/nano"><linearGradient id="A" gradientUnits="userSpaceOnUse" x1="31.25" x2="31.25" y1="62" y2="0"><stop offset="0" stop-color="#e25b43"/><stop offset="1" stop-color="#be29b6"/></linearGradient><path d="M18.25 6h-2V4h2zm4-2h-2v2h2zm4 0h-2v2h2zm18 10v16c0 1.103-.897 2-2 2h-22c-1.103 0-2-.897-2-2V14c0-1.103.897-2 2-2h22c1.103 0 2 .897 2 2zm-24 16h4.479l5.841-8.344C31.296 20.619 32.484 20 33.75 20s2.454.619 3.18 1.656l5.321 7.602L42.25 14h-22zm15.041-7.198C34.939 22.3 34.363 22 33.75 22s-1.189.3-1.541.802L27.171 30H40.33zM34.25 36v2c0 1.103-.897 2-2 2h-2c-1.103 0-2-.897-2-2v-2c0-1.103.897-2 2-2h2c1.103 0 2 .897 2 2zm-1.999 2l-.001-2h-2v2zm9.999-2v2c0 1.103-.897 2-2 2h-2c-1.103 0-2-.897-2-2v-2c0-1.103.897-2 2-2h2c1.103 0 2 .897 2 2zm-1.999 2l-.001-2h-2v2zM26.25 36v2c0 1.103-.897 2-2 2h-2c-1.103 0-2-.897-2-2v-2c0-1.103.897-2 2-2h2c1.103 0 2 .897 2 2zm-1.999 2l-.001-2h-2v2zM22.25 19c0-1.654 1.346-3 3-3s3 1.346 3 3-1.346 3-3 3-3-1.346-3-3zm2 0a1 1 0 1 0 2 0 1 1 0 1 0-2 0zm-16 17L0 25l8.25-11v6h4V3c0-1.654 1.346-3 3-3h32c1.654 0 3 1.346 3 3v17h4v-6l8.25 11-8.25 11v-6h-4v12.08c3.386.488 6 3.401 6 6.92v6a7.01 7.01 0 0 1-7 7h-16a6.97 6.97 0 0 1-2.033-.303A6.99 6.99 0 0 1 29.25 62h-16a7.01 7.01 0 0 1-7-7v-6c0-3.519 2.614-6.432 6-6.92V30h-4zm40 6V10h-34v32h15a6.97 6.97 0 0 1 2.033.303A6.99 6.99 0 0 1 33.25 42zM28.361 60c-.587-.574-1.068-1.251-1.425-2H13.25c-1.654 0-3-1.346-3-3v-6c0-1.654 1.346-3 3-3h16c1.654 0 3 1.346 3 3v6a1 1 0 0 0 1 1h.889a4.99 4.99 0 0 0 .111-1v-6c0-2.757-2.243-5-5-5h-16c-2.757 0-5 2.243-5 5v6c0 2.757 2.243 5 5 5zm7.889-11v6c0 .337-.037.67-.085 1H49.25a1 1 0 0 0 1-1v-6a1 1 0 0 0-1-1H36.17c.047.328.08.66.08 1zm-10 6v-6a6.93 6.93 0 0 1 .085-1H13.25a1 1 0 0 0-1 1v6a1 1 0 0 0 1 1h13.08c-.047-.328-.08-.66-.08-1zm23-11H34.139c.587.574 1.068 1.251 1.425 2H49.25c1.654 0 3 1.346 3 3v6c0 1.654-1.346 3-3 3h-16c-1.654 0-3-1.346-3-3v-6a1 1 0 0 0-1-1h-.889a4.98 4.98 0 0 0-.111 1v6c0 2.757 2.243 5 5 5h16c2.757 0 5-2.243 5-5v-6c0-2.757-2.243-5-5-5zm1-22v6h6v2L60 25l-3.75-5v2zm-36-19v5h34V3a1 1 0 0 0-1-1h-32a1 1 0 0 0-1 1zm-8 25h6v-6h-6v-2L2.5 25l3.75 5z" fill="url(#A)"/></svg>