<svg xmlns="http://www.w3.org/2000/svg" height="512" viewBox="0 0 62 62" width="512"  xmlns:v="https://vecta.io/nano"><linearGradient id="A" gradientUnits="userSpaceOnUse" x1="31" x2="31" y1="62" y2="0"><stop offset="0" stop-color="#e25b43"/><stop offset="1" stop-color="#be29b6"/></linearGradient><path d="M9.22 44h13.56l2.037-10H25v-.046c.856-.005 1.71-.338 2.276-1 .523-.608.777-1.384.715-2.184s-.431-1.528-1.119-2.109l-8.48-5.91c-1.411-.982-3.373-.983-4.784 0l-8.559 5.97c-.609.521-.979 1.249-1.04 2.049a2.98 2.98 0 0 0 .712 2.181C5.292 33.618 6.123 34 7.001 34h.182zM17 42h-2v-4h2zm4.146 0H19v-6h-6v6h-2.146l-1.629-8h13.551zM10.74 32L16 28.23 21.263 32zm-4.5-.351c-.173-.202-.257-.459-.237-.726s.144-.509.268-.623l8.48-5.909A2.19 2.19 0 0 1 16 24a2.18 2.18 0 0 1 1.249.392l8.402 5.85a.99.99 0 0 1 .346.682c.02.266-.064.525-.239.729-.344.401-.922.519-1.478.053L16 25.77l-8.352 5.991a1.03 1.03 0 0 1-1.408-.112zm50.633-20.988l-8.48-5.91c-1.411-.982-3.373-.983-4.784 0l-8.559 5.97c-.609.521-.979 1.249-1.04 2.049a2.98 2.98 0 0 0 .712 2.181c.57.667 1.401 1.049 2.28 1.049h.182l2.037 10H52.78l2.037-10H55v-.045c.856-.005 1.71-.338 2.276-1 .523-.608.777-1.384.715-2.184s-.431-1.529-1.118-2.11zM47 24h-2v-4h2zm4.146 0H49v-6h-6v6h-2.146l-1.629-8h13.551zM40.74 14L46 10.23 51.263 14zm15.018-.348c-.344.4-.922.518-1.478.053L46 7.77l-8.352 5.991a1.03 1.03 0 0 1-1.409-.111c-.173-.202-.257-.459-.237-.726s.144-.509.268-.623l8.48-5.909A2.19 2.19 0 0 1 46 6a2.18 2.18 0 0 1 1.249.392l8.402 5.85a.99.99 0 0 1 .346.682c.02.266-.064.525-.239.728zM62 15.891C62 7.128 54.872 0 46.109 0h-.219C41.158 0 36.914 2.091 34 5.385V0h-2v8.192a15.79 15.79 0 0 0-2 7.699 15.97 15.97 0 0 0 3.347 9.756l.653.839V48h28v-2H36V29.057l4.599 5.914C38.328 35.886 37 37.332 37 39c0 2.851 3.869 5 9 5s9-2.149 9-5c0-1.668-1.328-3.114-3.599-4.029l7.252-9.324A15.97 15.97 0 0 0 62 15.891zM53 39c0 1.416-2.994 3-7 3s-7-1.584-7-3c0-.877 1.138-1.795 2.884-2.378l1.712 2.202A3.03 3.03 0 0 0 46 40c.946 0 1.822-.429 2.403-1.176l1.712-2.202C51.862 37.205 53 38.123 53 39zm-6.176-1.403a1.09 1.09 0 0 1-1.648 0l-10.25-13.178A13.96 13.96 0 0 1 32 15.891 13.91 13.91 0 0 1 45.891 2h.219A13.91 13.91 0 0 1 60 15.891c0 3.074-1.039 6.103-2.926 8.528zM28 8H0V6h26V0h2zm8 50H24.832A3.1 3.1 0 0 0 25 57c0-1.136-.628-2.165-1.734-3H30V41.591c1.297-2.346 2-5.007 2-7.701 0-4.029-1.52-7.702-4-10.506V12H0v2h26v7.475C23.283 19.306 19.848 18 16.109 18h-.219C7.128 18 0 25.128 0 33.891a15.97 15.97 0 0 0 3.347 9.756l7.252 9.324C8.328 53.886 7 55.332 7 57c0 2.851 3.869 5 9 5 3.068 0 5.677-.772 7.286-2H38v-6h24v-2H36zm-13.844-6L28 44.486V52zM2 33.891A13.91 13.91 0 0 1 15.891 20h.219A13.91 13.91 0 0 1 30 33.891c0 3.074-1.039 6.103-2.926 8.528l-10.25 13.178a1.09 1.09 0 0 1-1.648 0L4.926 42.419A13.96 13.96 0 0 1 2 33.891zM16 60c-4.006 0-7-1.584-7-3 0-.877 1.138-1.795 2.884-2.378l1.713 2.202C14.178 57.571 15.054 58 16 58s1.822-.429 2.403-1.176l1.712-2.202C21.862 55.206 23 56.123 23 57c0 1.416-2.994 3-7 3zm-5-14h2v2h-2zm6 2h-2v-2h2zm2-2h2v2h-2zm30-18h2v2h-2zm-4 0h2v2h-2zm-4 0h2v2h-2z" fill="url(#A)"/></svg>