<svg xmlns="http://www.w3.org/2000/svg" height="512" viewBox="0 0 62 62" width="512"  xmlns:v="https://vecta.io/nano"><linearGradient id="A" gradientUnits="userSpaceOnUse" x1="31" x2="31" y1="62" y2="0"><stop offset="0" stop-color="#e25b43"/><stop offset="1" stop-color="#be29b6"/></linearGradient><path d="M16.871 47.712l-4.93-3.287A2.53 2.53 0 0 0 10.535 44 2.54 2.54 0 0 0 8 46.535v6.93A2.54 2.54 0 0 0 10.535 56c.502 0 .988-.147 1.406-.426l4.93-3.287A2.53 2.53 0 0 0 18 50.178v-.356c0-.849-.422-1.638-1.129-2.11zM16 50.178c0 .179-.089.346-.238.445l-4.93 3.287c-.332.221-.832-.044-.832-.445v-6.93c0-.295.24-.535.535-.535a.53.53 0 0 1 .297.09l4.93 3.287c.149.1.238.266.238.445zM59 0H29c-1.654 0-3 1.346-3 3v5H4c-1.103 0-2 .897-2 2v33.381C.739 45.28 0 47.555 0 50c0 6.617 5.383 12 12 12 3.542 0 6.721-1.552 8.919-4h25.766c1.126 2.361 3.53 4 6.315 4a7.01 7.01 0 0 0 7-7V29.439a3.04 3.04 0 0 0-.275-1.257L58.717 26H59c1.654 0 3-1.346 3-3V3c0-1.654-1.346-3-3-3zM26 10v6H4v-6zM12 60C6.486 60 2 55.514 2 50s4.486-10 10-10 10 4.486 10 10-4.486 10-10 10zm10.376-4C23.403 54.232 24 52.187 24 50c0-6.617-5.383-12-12-12-3.075 0-5.874 1.172-8 3.081V18h22v5c0 1.654 1.346 3 3 3h5.279l1.456 4.369A2.39 2.39 0 0 0 38 32c1.028 0 1.938-.656 2.265-1.632L41.721 26h5.562l-1.007 2.183A3.02 3.02 0 0 0 46 29.439V55c0 .34.033.672.08 1zm28.033-32h5.182l1.846 4h-8.875zm.923-2L53 18.386 54.668 22zM48 30h4v18h-4zm0 20h10v2H48zm6-2V30h4v18zm-1 12c-2.757 0-5-2.243-5-5v-1h10v1c0 2.757-2.243 5-5 5zm7-37a1 1 0 0 1-1 1h-1.206L53 13.614 48.206 24h-7.927l-1.911 5.734c-.107.318-.629.317-.736.001L35.721 24H29a1 1 0 0 1-1-1V3a1 1 0 0 1 1-1h30a1 1 0 0 1 1 1zM49.486 8.758l-4.244-4.244L44 5.757V4h-6v1.758l-1.242-1.244-4.244 4.244L33.758 10H32v6h1.758l-1.244 1.243 4.244 4.244L38 20.243V22h6v-1.758l1.242 1.244 4.244-4.244L48.242 16H50v-6h-1.758zM48 14.015a1.99 1.99 0 0 0-1.605 1.22c-.279.674-.17 1.434.272 1.998l-1.435 1.435a2 2 0 0 0-1.998-.272c-.674.279-1.134.894-1.22 1.605h-2.029c-.086-.711-.546-1.326-1.22-1.605s-1.434-.17-1.998.272l-1.435-1.435a1.99 1.99 0 0 0 .272-1.998c-.278-.675-.893-1.135-1.604-1.22v-2.029a1.99 1.99 0 0 0 1.605-1.22c.279-.674.17-1.434-.272-1.998l1.435-1.435a1.99 1.99 0 0 0 1.998.272c.674-.279 1.134-.894 1.22-1.605h2.029c.086.711.546 1.326 1.22 1.605a2 2 0 0 0 1.998-.272l1.435 1.435a1.99 1.99 0 0 0 1.333 3.218v2.029zM41 8c-2.757 0-5 2.243-5 5s2.243 5 5 5 5-2.243 5-5-2.243-5-5-5zm0 8c-1.654 0-3-1.346-3-3s1.346-3 3-3 3 1.346 3 3-1.346 3-3 3zM9 14H7v-2h2zm4 0h-2v-2h2zm4 0h-2v-2h2zm11 36h2v2h-2zm6 0h2v2h-2zm6 0h2v2h-2zM22 20H8c-1.103 0-2 .897-2 2v12c0 1.103.897 2 2 2h14c1.103 0 2-.897 2-2V22c0-1.103-.897-2-2-2zM8 22h14l.001 11.115-3.623-5.797A2.79 2.79 0 0 0 16 26a2.79 2.79 0 0 0-2.378 1.318L9.446 34H8zm12.196 12h-8.393l3.514-5.622c.297-.474 1.068-.473 1.365 0zM12 26h-2v-2h2zm20 10h-4v-2h4zm2-2h8v2h-8zm-6 4h14v2H28zm0 4h14v2H28zm0 4h14v2H28z" fill="url(#A)"/></svg>