<svg xmlns="http://www.w3.org/2000/svg" height="512" viewBox="0 0 62 62" width="512"  xmlns:v="https://vecta.io/nano"><linearGradient id="A" gradientUnits="userSpaceOnUse" x1="31" x2="31" y1="62" y2="0"><stop offset="0" stop-color="#e25b43"/><stop offset="1" stop-color="#be29b6"/></linearGradient><path d="M49 0H21c-1.654 0-3 1.346-3 3v5h-6a6.01 6.01 0 0 0-6 6 6.01 6.01 0 0 0 6 6h6v4h-6v2.062c0 .472-.286.895-.758 1.088-.44.181-.938.083-1.27-.248l-1.458-1.458-7.071 7.071 1.449 1.449c.337.337.438.839.246 1.306-.182.443-.61.73-1.089.73H0v10h2.062c.472 0 .892.282 1.092.768.178.434.079.929-.252 1.26l-1.458 1.458 7.071 7.071 1.449-1.449c.337-.336.84-.437 1.306-.246.443.183.73.61.73 1.089V58h9.641c2.367 2.46 5.684 4 9.359 4h28c1.654 0 3-1.346 3-3V13A13.02 13.02 0 0 0 49 0zM12 18c-2.206 0-4-1.794-4-4s1.794-4 4-4h6v8zm6 27.889A4.99 4.99 0 0 1 17 46c-2.757 0-5-2.243-5-5s2.243-5 5-5a4.99 4.99 0 0 1 1 .111zm0-11.805c-.33-.047-.663-.084-1-.084a7.01 7.01 0 0 0-7 7 7.01 7.01 0 0 0 7 7c.337 0 .67-.037 1-.084V49c0 .316.025.625.047.936A9.14 9.14 0 0 1 17 50c-4.962 0-9-4.038-9-9s4.038-9 9-9c.335 0 .669.023 1 .059zm2 21.854V56h-6v-.049c0-1.293-.773-2.447-1.996-2.95a3.17 3.17 0 0 0-3.454.691l-.035.035-4.243-4.243.044-.043c.903-.904 1.173-2.252.667-3.484A3.15 3.15 0 0 0 2.062 44H2v-6h.049c1.293 0 2.447-.773 2.95-1.996a3.17 3.17 0 0 0-.691-3.454l-.035-.035 4.243-4.243.043.044c.905.905 2.258 1.171 3.472.672 1.197-.491 1.97-1.64 1.97-2.927V26h4v4.05c-.333-.03-.667-.05-1.001-.05-6.065 0-11 4.935-11 11s4.935 11 11 11a11.13 11.13 0 0 0 1.341-.089c.33 1.436.899 2.778 1.662 3.989-.001.013-.003.026-.003.038zM59 60H31c-6.065 0-11-4.935-11-11V18h40v41a1 1 0 0 1-1 1zm1-44H20v-6h2.101A5.01 5.01 0 0 0 27 14c2.757 0 5-2.243 5-5s-2.243-5-5-5a5.01 5.01 0 0 0-4.899 4H20V3a1 1 0 0 1 1-1h28c6.065 0 11 4.935 11 11zM24.184 8c.414-1.161 1.514-2 2.816-2 1.654 0 3 1.346 3 3s-1.346 3-3 3c-1.302 0-2.402-.839-2.816-2H26V8zM30 54h2v2h-2zm6 0h2v2h-2zm6 0h2v2h-2zm6 0h2v2h-2zm5-32H27c-1.654 0-3 1.346-3 3v22c0 1.654 1.346 3 3 3h26c1.654 0 3-1.346 3-3V25c0-1.654-1.346-3-3-3zm-19 2h2v4h-1a1 1 0 0 1-1-1zm4 0h2v4h-2zm4 0h4v3a1 1 0 0 1-1 1h-3zm12 23a1 1 0 0 1-1 1H27a1 1 0 0 1-1-1V25a1 1 0 0 1 1-1h5v3c0 1.654 1.346 3 3 3h10c1.654 0 3-1.346 3-3v-3h5a1 1 0 0 1 1 1zM42.535 36L40 32.197 37.465 36h-4.333l2.791 4.187-1.42 5.68L40 43.118l5.498 2.749-1.42-5.68L46.869 36zm-.033 6.133L40 40.882l-2.502 1.251.58-2.32L36.869 38h1.667L40 35.803 41.465 38h1.667l-1.209 1.813zM50 4H36c-1.103 0-2 .897-2 2v4c0 1.103.897 2 2 2h14c1.103 0 2-.897 2-2V6c0-1.103-.897-2-2-2zm-6 2h2v4h-2zm-2 4h-2V6h2zm-6-4h2v4h-2zm12 4V6h2l.001 4z" fill="url(#A)"/></svg>