<svg width="340" height="340" viewBox="0 0 340 340" fill="none" xmlns="http://www.w3.org/2000/svg">
<circle cx="170" cy="170" r="170" transform="rotate(-90 170 170)" fill="#50A8E2"/>
<path d="M151.453 1.01479C115.687 4.94028 82.0894 20.1123 55.4951 44.3472C28.9008 68.582 10.6815 100.63 3.45965 135.878C-3.76224 171.126 0.385678 207.757 15.3064 240.497C30.2271 273.238 55.1512 300.401 86.4912 318.075C117.831 335.75 153.971 343.025 189.709 338.854C225.446 334.682 258.939 319.28 285.366 294.863C311.793 270.445 329.792 238.273 336.771 202.976C343.75 167.679 339.351 131.078 324.205 98.4406L170 170L151.453 1.01479Z" fill="#50E2AA"/>
<path d="M323.732 97.4294C341.248 134.536 344.753 176.726 333.598 216.214C322.443 255.702 297.382 289.823 263.039 312.28L170 170L323.732 97.4294Z" fill="#6650E2"/>
<path d="M263.436 312.02C244.786 324.29 223.901 332.767 201.975 336.966C180.049 341.165 157.51 341.004 135.646 336.493L170 170L263.436 312.02Z" fill="#CCE250"/>
<path d="M136.558 336.678C98.0108 328.944 63.3359 308.089 38.4371 277.662C13.5383 247.236 -0.0449193 209.121 0.00011151 169.805L170 170L136.558 336.678Z" fill="#E246A6"/>
</svg>
