<svg xmlns="http://www.w3.org/2000/svg" height="512" viewBox="0 0 62 62" width="512"  xmlns:v="https://vecta.io/nano"><linearGradient id="A" gradientUnits="userSpaceOnUse" x1="31" x2="31" y1="62" y2="0"><stop offset="0" stop-color="#e25b43"/><stop offset="1" stop-color="#be29b6"/></linearGradient><path d="M39 0H16v26h-1c-1.654 0-3 1.346-3 3v30c0 1.654 1.346 3 3 3h32c1.654 0 3-1.346 3-3V29c0-1.654-1.346-3-3-3h-1V7a7.01 7.01 0 0 0-7-7zm5 7v19H34v3c0 1.302-.839 2.402-2 2.816V2h7c2.757 0 5 2.243 5 5zM26 28v1c0 2.757 2.243 5 5 5s5-2.243 5-5v-1h8v32H18V28zm4 3.816c-1.161-.414-2-1.514-2-2.816v-3h-2V2h4zM18 2h6v24h-6zm-4 57V29a1 1 0 0 1 1-1h1v32h-1a1 1 0 0 1-1-1zm34-30v30a1 1 0 0 1-1 1h-1V28h1a1 1 0 0 1 1 1zM37 18h2c1.654 0 3-1.346 3-3V7c0-1.654-1.346-3-3-3h-2c-1.654 0-3 1.346-3 3v8c0 1.654 1.346 3 3 3zm2-2h-2a1 1 0 0 1-1-1v-1h4v1a1 1 0 0 1-1 1zm-3-4v-2h4v2zm1-6h2a1 1 0 0 1 1 1v1h-4V7a1 1 0 0 1 1-1zm-17 6h2v4h-2zm0 8h2v4h-2zm2-16v4h-2V4zm10 54h-2v-2h2zm2-2h8v2h-8zm8-2H30v-2h12zm17-12a1 1 0 0 0-1-1h-2c-1.654 0-3-1.346-3-3s1.346-3 3-3v-2h2v2c1.654 0 3 1.346 3 3h-2a1 1 0 0 0-1-1h-2a1 1 0 1 0 0 2h2c1.654 0 3 1.346 3 3s-1.346 3-3 3v2h-2v-2c-1.654 0-3-1.346-3-3h2a1 1 0 0 0 1 1h2a1 1 0 0 0 1-1zM7 14a1 1 0 0 0-1-1H4c-1.654 0-3-1.346-3-3s1.346-3 3-3V5h2v2c1.654 0 3 1.346 3 3H7a1 1 0 0 0-1-1H4a1 1 0 1 0 0 2h2c1.654 0 3 1.346 3 3s-1.346 3-3 3v2H4v-2c-1.654 0-3-1.346-3-3h2a1 1 0 0 0 1 1h2a1 1 0 0 0 1-1zm51 9h4v2h-4v4h-2v-4h-4v-2h4v-4h2zm0-14h4v2h-4v4h-2v-4h-4V9h4V5h2zM4 43H0v-2h4v-4h2v4h4v2H6v4H4zm0-14H0v-2h4v-4h2v4h4v2H6v4H4z" fill="url(#A)"/></svg>